<svg xmlns="http://www.w3.org/2000/svg" viewBox="0 0 576 576"><defs><style><![CDATA[line,polyline,polygon,path,rect,circle{fill:none;stroke:#000000;stroke-linecap:round;stroke-linejoin:round;stroke-miterlimit:10.00}]]></style></defs><rect width="100%" height="100%" style="stroke:none;fill:#FFFFFF"/><path style="stroke-width:1.07;stroke:#FFFFFF;fill:#FFFFFF" d="M0 0h576v576H0z"/><defs><clipPath id="cpOC4yMnw1NzAuNTJ8NTY3Ljc4fDUuNDg="><path d="M8 5h562v562H8z"/></clipPath></defs><path style="stroke-width:1.07;stroke:none;fill:#FFFFFF" clip-path="url(#cpOC4yMnw1NzAuNTJ8NTY3Ljc4fDUuNDg=)" d="M8 5h562v562H8z"/><path style="stroke-width:2.13;stroke:#878787;stroke-linecap:butt" clip-path="url(#cpOC4yMnw1NzAuNTJ8NTY3Ljc4fDUuNDg=)" d="M8 478h563M8 351h563M8 223h563M8 95h563M98 568V5M225 568V5M353 568V5M481 568V5M8 542h563M8 414h563M8 287h563M8 159h563M8 31h563M34 568V5M162 568V5M289 568V5M417 568V5M545 568V5"/><path style="stroke-width:4.27;fill:#FFFFFF" clip-path="url(#cpOC4yMnw1NzAuNTJ8NTY3Ljc4fDUuNDg=)" d="M102 282h172l1-1h1l1-1 1-1v-1l1-1V92l-1-1v-1l-1-1-1-1-1-1H102h1-3l-1 1h-1l-1 1-1 1v1l-1 1v183-1 3l1 1v1l1 1h1l1 1 1 1h2z"/><g clip-path="url(#cpOC4yMnw1NzAuNTJ8NTY3Ljc4fDUuNDg=)"><text x="124" y="253" style="font-size:199.17px;font-family:Utopia" textLength="126" lengthAdjust="spacingAndGlyphs">A</text></g><path style="stroke-width:4.27;fill:#FFFFFF" clip-path="url(#cpOC4yMnw1NzAuNTJ8NTY3Ljc4fDUuNDg=)" d="M152 487h173l1-1h1l1-1h1l1-1 1-1V295l-1-1-1-1-1-1h-1l-1-1H152h1-2l-1 1h-1l-1 1-1 1-1 1v1l-1 1v184l1 1v1l1 1 1 1 1 1h2l1 1z"/><g clip-path="url(#cpOC4yMnw1NzAuNTJ8NTY3Ljc4fDUuNDg=)"><text x="174" y="458" style="font-size:199.17px;font-family:Utopia" textLength="129" lengthAdjust="spacingAndGlyphs">B</text></g><path style="stroke-width:4.27;fill:#FFFFFF" clip-path="url(#cpOC4yMnw1NzAuNTJ8NTY3Ljc4fDUuNDg=)" d="M302 384h182l1-1 1-1 1-1 1-1v-2l1-1V196l-1-1v-2l-1-1-1-1-1-1h-1l-1-1H302h1-4l-1 1-1 1-1 1-1 1v187l1 1 1 1v1h1l1 1h3z"/><g clip-path="url(#cpOC4yMnw1NzAuNTJ8NTY3Ljc4fDUuNDg=)"><text x="323" y="356" style="font-size:199.17px;font-family:Utopia" textLength="136" lengthAdjust="spacingAndGlyphs">C</text></g><path style="stroke-width:12.80" clip-path="url(#cpOC4yMnw1NzAuNTJ8NTY3Ljc4fDUuNDg=)" d="M8 5h562v562H8z"/><defs><clipPath id="cpMC4wMHw1NzYuMDB8NTc2LjAwfDAuMDA="><path d="M0 0h576v576H0z"/></clipPath></defs></svg>