<svg xmlns="http://www.w3.org/2000/svg" viewBox="0 0 576 576"><defs><style><![CDATA[line,polyline,polygon,path,rect,circle{fill:none;stroke:#000000;stroke-linecap:round;stroke-linejoin:round;stroke-miterlimit:10.00}]]></style></defs><rect width="100%" height="100%" style="stroke:none;fill:#FFFFFF"/><path style="stroke-width:1.07;stroke:#FFFFFF;fill:#FFFFFF" d="M0 0h576v576H0z"/><defs><clipPath id="cpOC4yMnw1NzAuNTJ8NTY3Ljc4fDUuNDg="><path d="M8 5h562v562H8z"/></clipPath></defs><path style="stroke-width:1.07;stroke:none;fill:#FFFFFF" clip-path="url(#cpOC4yMnw1NzAuNTJ8NTY3Ljc4fDUuNDg=)" d="M8 5h562v562H8z"/><path style="stroke-width:2.13;stroke:#878787;stroke-linecap:butt" clip-path="url(#cpOC4yMnw1NzAuNTJ8NTY3Ljc4fDUuNDg=)" d="M8 478h563M8 351h563M8 223h563M8 95h563M98 568V5M225 568V5M353 568V5M481 568V5M8 542h563M8 414h563M8 287h563M8 159h563M8 31h563M34 568V5M162 568V5M289 568V5M417 568V5M545 568V5"/><path style="stroke-width:6.40;stroke:#3366FF;stroke-linecap:butt" clip-path="url(#cpOC4yMnw1NzAuNTJ8NTY3Ljc4fDUuNDg=)" d="M125 401l-1-1-1-5v-23l1-6v-6l1-1v-4l2-6 1-6 2-5v-2l1-4 3-6 2-5 3-6 3-6 3-5 2-5 1-1 4-6 1-2 2-3 4-5v-1l4-6 1-1 3-4 3-5 1-1 4-6 1-1 3-4 2-4 2-2 4-6 4-5 2-2 3-4 2-3 3-3 3-4 2-2 4-3 2-2 4-4 2-2 3-3 3-3 3-3 3-2 3-3 3-3 2-2 4-4 2-1 5-4 1-1 5-4 1-1 5-4 3-2 3-2 5-3h1l5-4 4-2 2-1 5-3 5-2h1l6-3 5-2h1l5-3 6-2 3-1 2-1 6-2 6-2 2-1 3-1 6-1 6-2 6-1 5-1 6-1 6-1h5l6-1h6l5 1h6l6 1 4 2h1l6 2 6 2 2 1 3 2 6 4 6 6 4 5 1 3 2 3 3 6 1 5 1 6 1 6v17l-1 5-1 6v1l-1 5-1 5-1 6-1 6-2 4v2l-2 5-1 6-2 4-1 2-2 5-3 6-3 6-3 4v1l-4 6-1 2-2 4-4 5-4 6-2 2-3 4-2 3-2 2-4 5v1l-5 6h-1l-4 5-1 2-4 4-2 2-3 4-3 2-3 3-2 3-3 3-3 3-3 3-3 3-2 2-3 4-2 2-4 5-1 1-5 5v1l-6 5-5 6-6 6-6 5-5 5-2 1-4 3-3 3-3 1-5 4h-1l-5 4-4 2-2 1-5 3-4 2h-2l-6 3-5 2v1l-6 2-6 2-2 1-3 1-6 2-6 2-2 1-3 1-6 1-6 2-5 1h-1l-5 1-6 1-6 1-5 1h-17l-6-1-6-2-1-1-4-2-6-3h-1l-5-4-1-2-4-4-2-2-4-5v-1l-3-5-3-5v-1l-2-5-2-6-1-5"/><path style="stroke-width:6.40;stroke:#3366FF;stroke-linecap:butt" clip-path="url(#cpOC4yMnw1NzAuNTJ8NTY3Ljc4fDUuNDg=)" d="M159 384l-1-1-1-5-1-6v-6l-1-6 1-5v-6l1-6 1-5 1-2 1-4 2-6 2-5v-1l3-5 2-6 1-1 3-4 3-6 3-6 2-3 2-2 4-6v-1l3-5 3-3 1-2 4-6v-1l4-5 2-3 2-2 4-6 5-6 1-1 3-4 2-3 4-3 2-3 3-3 3-2 3-4 2-2 3-3 3-3 3-3 3-2 4-4 1-1 5-4 1-1 6-5 5-4 3-2 3-2 5-3h1l5-4 5-2h1l6-3 5-2 1-1 5-2 6-1 5-2h1l5-2 6-1 5-1 6-1 6-1h23l5 1 6 1 6 2 4 2h1l6 4 2 1 4 4 2 2 3 5 1 1 3 5 2 6v1l1 5 1 5 1 6v17l-1 6-1 6-1 4v1l-2 6-2 6-2 4v1l-2 6-3 6-3 5-3 5-1 1-3 6-2 2-2 3-3 5-1 1-4 6-1 1-4 4-2 3-3 3-2 3-3 3-3 3-2 2-4 4-1 2-4 4-2 2-4 4-1 1-5 5-1 1-5 5v1l-5 5h-1l-5 6-6 5v1l-5 4-2 2-4 3-2 2-4 3-4 3-1 1-6 4-1 1-5 3-3 2-2 1-6 4-3 1-3 1-5 3-4 2-2 1-6 2-5 2h-2l-4 2-6 1-5 1-6 1-4 1h-2l-5 1h-6l-6-1h-1l-5-1-5-1-6-2-3-2-3-1-5-4v-1l-6-5-4-6-2-3-1-2-3-6-1-5"/><path style="stroke-width:6.40;stroke:#3366FF;stroke-linecap:butt" clip-path="url(#cpOC4yMnw1NzAuNTJ8NTY3Ljc4fDUuNDg=)" d="M181 376l-1-4-2-6-1-6v-11l1-6 1-5 1-6 1-4 1-2 2-5 3-6v-1l2-5 3-5 1-1 3-5 2-5 1-1 3-5 2-3 2-3 3-6h1l3-5 3-4 1-2 4-6 4-5 2-2 3-4 3-3 2-3 3-3 2-2 4-4 2-2 4-4 1-2 4-4 2-2 4-4 2-1 4-4 2-2 3-3 4-3 2-1 6-4 5-4 4-2 2-1 6-3 4-2h1l6-2 6-2 5-1 6-2 6-1h5l6-1h6l6 1 5 1 6 1 3 1 3 1 5 2 3 2 3 2 4 4 2 2 2 4 3 5 2 6 2 6 1 5v18l-1 5-2 6-1 6-1 1-1 4-2 6-2 4-1 2-3 5-2 4-1 2-4 6-1 1-3 4-2 4-2 2-4 5v1l-5 5-1 1-4 5-1 1-5 5-1 1-4 4-2 2-4 4-2 2-3 4-2 2-4 3-2 3-3 3-3 2-3 4-2 2-5 3-1 2-5 4h-1l-5 5-2 1-4 3-4 3-2 1-5 4h-1l-5 3-6 3-5 3-6 2-1 1-5 1-5 2-6 2h-2l-4 1-5 1h-17l-6-1-2-1-4-1-6-3-1-1-4-3-3-3-3-4-2-2-3-5-1-2"/><path style="stroke-width:6.40;stroke:#3366FF;stroke-linecap:butt" clip-path="url(#cpOC4yMnw1NzAuNTJ8NTY3Ljc4fDUuNDg=)" d="M198 360l-1-5v-17l1-6 2-6 2-5 2-6 3-6 2-5 1-1 2-5 3-6h1l3-5 2-4 1-2 4-6 1-1 3-4 3-5 1-1 4-6 5-5 1-2 4-4 2-2 3-4 2-3 3-2 3-4 2-2 4-3 2-3 3-3 3-3 3-2 4-3 2-2 5-4h1l5-3 4-3h2l5-3 6-2h1l5-2 5-1 6-1h6l5-1 6 1 6 1 6 1 3 2 2 1 6 3 2 1 4 4 1 2 4 6v1l2 4 1 6 1 6v11l-1 6-1 6-2 5v1l-2 5-2 6-1 2-2 3-3 6-1 1-3 5-3 4-1 1-4 6h-1l-5 6-5 5-1 2-4 4-2 2-3 4-2 2-4 3-2 3-3 3-3 2-3 4-2 2-4 3-2 2-4 4-2 1-5 5h-1l-5 4-2 1-4 3-5 3-6 4-4 2-2 1-5 2-6 3-6 2-5 1-6 1-6 1h-11l-6-1-5-2-4-2-2-2-5-4-1-1-3-5-2-6h-1"/><path style="stroke-width:6.40;stroke:#3366FF;stroke-linecap:butt" clip-path="url(#cpOC4yMnw1NzAuNTJ8NTY3Ljc4fDUuNDg=)" d="M221 352l-1-3-2-6-1-5v-6l1-6 2-5 1-6 2-6 3-5 1-3 1-3 3-6 2-2 2-3 3-6 4-6 2-3 2-2 4-6 4-6 1-1 4-4 2-3 3-3 3-3 2-3 3-3 3-2 3-4 3-2 3-3 3-3 2-2 6-4 6-3 4-2 1-1 6-2 6-2 5-1 6-1 6 1h5l6 2 6 3 2 1 4 3 2 2 3 5 1 1 2 6 2 6v11l-1 6-1 5-2 6-1 2-1 4-3 5-1 2-3 4-3 5-1 1-4 5-1 1-4 5-2 2-3 4-2 2-3 3-3 3-3 3-3 3-2 3-3 3-3 2-3 3-3 3-3 2-4 4-1 1-6 4-6 4-3 2-2 2-6 3-2 1-4 2-5 2-5 1-1 1-6 1-5 1h-12l-5-2-2-1-4-2-4-3-2-3"/><path style="stroke-width:6.40;stroke:#3366FF;stroke-linecap:butt" clip-path="url(#cpOC4yMnw1NzAuNTJ8NTY3Ljc4fDUuNDg=)" d="M244 334l-2-2-1-6-1-5 1-6 1-6 2-5v-1l2-5 2-6 2-2 2-3 3-6v-1l4-5 2-3 2-2 4-6 5-6v-1l4-4 2-2 4-4 2-2 3-4 2-2 5-3 1-1 6-4 1-1 4-3 6-2 3-1 3-1h11l6 1 5 3 4 3 2 3 2 3 2 5 1 6v6l-1 5-1 6-3 6-3 5-3 4-1 2-4 6-5 5-1 2-4 4-2 2-3 4-2 2-4 3-2 2-4 4-2 2-4 4-1 1-6 4-6 4-3 2-2 2-6 2-3 2-3 1-5 1-6 1h-6l-5-2-3-1-3-4"/><path style="stroke-width:6.40;stroke:#3366FF;stroke-linecap:butt" clip-path="url(#cpOC4yMnw1NzAuNTJ8NTY3Ljc4fDUuNDg=)" d="M272 306l-1-2v-6l1-6 3-5 3-6v-1l3-5 3-4 1-1 4-6 6-6 6-5 5-4 6-2 6-1 3 1 2 1 4 5 1 5-1 6-2 6-2 3-1 2-4 6-5 6h-1l-5 5-1 1-5 5-6 4-2 2-4 2-5 2-6 1-6-3"/><path style="stroke-width:12.80" clip-path="url(#cpOC4yMnw1NzAuNTJ8NTY3Ljc4fDUuNDg=)" d="M8 5h562v562H8z"/><defs><clipPath id="cpMC4wMHw1NzYuMDB8NTc2LjAwfDAuMDA="><path d="M0 0h576v576H0z"/></clipPath></defs></svg>