<svg xmlns="http://www.w3.org/2000/svg" viewBox="0 0 576 576"><defs><style><![CDATA[line,polyline,polygon,path,rect,circle{fill:none;stroke:#000000;stroke-linecap:round;stroke-linejoin:round;stroke-miterlimit:10.00}]]></style></defs><rect width="100%" height="100%" style="stroke:none;fill:#FFFFFF"/><path style="stroke-width:1.07;stroke:#FFFFFF;fill:#FFFFFF" d="M0 0h576v576H0z"/><defs><clipPath id="cpOC4yMnw1NzAuNTJ8NTY3Ljc4fDUuNDg="><path d="M8 5h562v562H8z"/></clipPath></defs><path style="stroke-width:1.07;stroke:none;fill:#FFFFFF" clip-path="url(#cpOC4yMnw1NzAuNTJ8NTY3Ljc4fDUuNDg=)" d="M8 5h562v562H8z"/><path style="stroke-width:2.13;stroke:#878787;stroke-linecap:butt" clip-path="url(#cpOC4yMnw1NzAuNTJ8NTY3Ljc4fDUuNDg=)" d="M8 497h563M8 355h563M8 213h563M8 71h563M79 568V5M221 568V5M363 568V5M505 568V5M8 568h563M8 426h563M8 284h563M8 142h563M8 568V5M150 568V5M292 568V5M434 568V5"/><path style="stroke-width:0.21;stroke:none;stroke-linecap:square;stroke-linejoin:miter;fill:#132C44" clip-path="url(#cpOC4yMnw1NzAuNTJ8NTY3Ljc4fDUuNDg=)" d="M8 497h71v71H8z"/><path style="stroke-width:0.21;stroke:none;stroke-linecap:square;stroke-linejoin:miter;fill:#152F48" clip-path="url(#cpOC4yMnw1NzAuNTJ8NTY3Ljc4fDUuNDg=)" d="M79 497h71v71H79z"/><path style="stroke-width:0.21;stroke:none;stroke-linecap:square;stroke-linejoin:miter;fill:#142C45" clip-path="url(#cpOC4yMnw1NzAuNTJ8NTY3Ljc4fDUuNDg=)" d="M150 497h71v71h-71z"/><path style="stroke-width:0.21;stroke:none;stroke-linecap:square;stroke-linejoin:miter;fill:#132B43" clip-path="url(#cpOC4yMnw1NzAuNTJ8NTY3Ljc4fDUuNDg=)" d="M221 497h71v71h-71zM292 497h71v71h-71zM363 497h71v71h-71zM434 497h71v71h-71zM505 497h71v71h-71z"/><path style="stroke-width:0.21;stroke:none;stroke-linecap:square;stroke-linejoin:miter;fill:#142E46" clip-path="url(#cpOC4yMnw1NzAuNTJ8NTY3Ljc4fDUuNDg=)" d="M8 426h71v71H8z"/><path style="stroke-width:0.21;stroke:none;stroke-linecap:square;stroke-linejoin:miter;fill:#17334E" clip-path="url(#cpOC4yMnw1NzAuNTJ8NTY3Ljc4fDUuNDg=)" d="M79 426h71v71H79z"/><path style="stroke-width:0.21;stroke:none;stroke-linecap:square;stroke-linejoin:miter;fill:#1B3A58" clip-path="url(#cpOC4yMnw1NzAuNTJ8NTY3Ljc4fDUuNDg=)" d="M150 426h71v71h-71z"/><path style="stroke-width:0.21;stroke:none;stroke-linecap:square;stroke-linejoin:miter;fill:#17324D" clip-path="url(#cpOC4yMnw1NzAuNTJ8NTY3Ljc4fDUuNDg=)" d="M221 426h71v71h-71z"/><path style="stroke-width:0.21;stroke:none;stroke-linecap:square;stroke-linejoin:miter;fill:#142C45" clip-path="url(#cpOC4yMnw1NzAuNTJ8NTY3Ljc4fDUuNDg=)" d="M292 426h71v71h-71z"/><path style="stroke-width:0.21;stroke:none;stroke-linecap:square;stroke-linejoin:miter;fill:#132B43" clip-path="url(#cpOC4yMnw1NzAuNTJ8NTY3Ljc4fDUuNDg=)" d="M363 426h71v71h-71zM434 426h71v71h-71zM505 426h71v71h-71z"/><path style="stroke-width:0.21;stroke:none;stroke-linecap:square;stroke-linejoin:miter;fill:#142D45" clip-path="url(#cpOC4yMnw1NzAuNTJ8NTY3Ljc4fDUuNDg=)" d="M8 355h71v71H8z"/><path style="stroke-width:0.21;stroke:none;stroke-linecap:square;stroke-linejoin:miter;fill:#1B3A58" clip-path="url(#cpOC4yMnw1NzAuNTJ8NTY3Ljc4fDUuNDg=)" d="M79 355h71v71H79z"/><path style="stroke-width:0.21;stroke:none;stroke-linecap:square;stroke-linejoin:miter;fill:#2D5E88" clip-path="url(#cpOC4yMnw1NzAuNTJ8NTY3Ljc4fDUuNDg=)" d="M150 355h71v71h-71z"/><path style="stroke-width:0.21;stroke:none;stroke-linecap:square;stroke-linejoin:miter;fill:#2F628D" clip-path="url(#cpOC4yMnw1NzAuNTJ8NTY3Ljc4fDUuNDg=)" d="M221 355h71v71h-71z"/><path style="stroke-width:0.21;stroke:none;stroke-linecap:square;stroke-linejoin:miter;fill:#1C3C5B" clip-path="url(#cpOC4yMnw1NzAuNTJ8NTY3Ljc4fDUuNDg=)" d="M292 355h71v71h-71z"/><path style="stroke-width:0.21;stroke:none;stroke-linecap:square;stroke-linejoin:miter;fill:#132B43" clip-path="url(#cpOC4yMnw1NzAuNTJ8NTY3Ljc4fDUuNDg=)" d="M363 355h71v71h-71zM434 355h71v71h-71zM505 355h71v71h-71z"/><path style="stroke-width:0.21;stroke:none;stroke-linecap:square;stroke-linejoin:miter;fill:#132C44" clip-path="url(#cpOC4yMnw1NzAuNTJ8NTY3Ljc4fDUuNDg=)" d="M8 284h71v71H8z"/><path style="stroke-width:0.21;stroke:none;stroke-linecap:square;stroke-linejoin:miter;fill:#17334E" clip-path="url(#cpOC4yMnw1NzAuNTJ8NTY3Ljc4fDUuNDg=)" d="M79 284h71v71H79z"/><path style="stroke-width:0.21;stroke:none;stroke-linecap:square;stroke-linejoin:miter;fill:#2C5C84" clip-path="url(#cpOC4yMnw1NzAuNTJ8NTY3Ljc4fDUuNDg=)" d="M150 284h71v71h-71z"/><path style="stroke-width:0.21;stroke:none;stroke-linecap:square;stroke-linejoin:miter;fill:#4C9EDD" clip-path="url(#cpOC4yMnw1NzAuNTJ8NTY3Ljc4fDUuNDg=)" d="M221 284h71v71h-71z"/><path style="stroke-width:0.21;stroke:none;stroke-linecap:square;stroke-linejoin:miter;fill:#3773A4" clip-path="url(#cpOC4yMnw1NzAuNTJ8NTY3Ljc4fDUuNDg=)" d="M292 284h71v71h-71z"/><path style="stroke-width:0.21;stroke:none;stroke-linecap:square;stroke-linejoin:miter;fill:#1B3A57" clip-path="url(#cpOC4yMnw1NzAuNTJ8NTY3Ljc4fDUuNDg=)" d="M363 284h71v71h-71z"/><path style="stroke-width:0.21;stroke:none;stroke-linecap:square;stroke-linejoin:miter;fill:#132C44" clip-path="url(#cpOC4yMnw1NzAuNTJ8NTY3Ljc4fDUuNDg=)" d="M434 284h71v71h-71z"/><path style="stroke-width:0.21;stroke:none;stroke-linecap:square;stroke-linejoin:miter;fill:#132B43" clip-path="url(#cpOC4yMnw1NzAuNTJ8NTY3Ljc4fDUuNDg=)" d="M505 284h71v71h-71zM8 213h71v71H8z"/><path style="stroke-width:0.21;stroke:none;stroke-linecap:square;stroke-linejoin:miter;fill:#142D45" clip-path="url(#cpOC4yMnw1NzAuNTJ8NTY3Ljc4fDUuNDg=)" d="M79 213h71v71H79z"/><path style="stroke-width:0.21;stroke:none;stroke-linecap:square;stroke-linejoin:miter;fill:#1A3956" clip-path="url(#cpOC4yMnw1NzAuNTJ8NTY3Ljc4fDUuNDg=)" d="M150 213h71v71h-71z"/><path style="stroke-width:0.21;stroke:none;stroke-linecap:square;stroke-linejoin:miter;fill:#3874A5" clip-path="url(#cpOC4yMnw1NzAuNTJ8NTY3Ljc4fDUuNDg=)" d="M221 213h71v71h-71z"/><path style="stroke-width:0.21;stroke:none;stroke-linecap:square;stroke-linejoin:miter;fill:#56B1F7" clip-path="url(#cpOC4yMnw1NzAuNTJ8NTY3Ljc4fDUuNDg=)" d="M292 213h71v71h-71z"/><path style="stroke-width:0.21;stroke:none;stroke-linecap:square;stroke-linejoin:miter;fill:#316692" clip-path="url(#cpOC4yMnw1NzAuNTJ8NTY3Ljc4fDUuNDg=)" d="M363 213h71v71h-71z"/><path style="stroke-width:0.21;stroke:none;stroke-linecap:square;stroke-linejoin:miter;fill:#17334E" clip-path="url(#cpOC4yMnw1NzAuNTJ8NTY3Ljc4fDUuNDg=)" d="M434 213h71v71h-71z"/><path style="stroke-width:0.21;stroke:none;stroke-linecap:square;stroke-linejoin:miter;fill:#132B43" clip-path="url(#cpOC4yMnw1NzAuNTJ8NTY3Ljc4fDUuNDg=)" d="M505 213h71v71h-71zM8 142h71v71H8zM79 142h71v71H79z"/><path style="stroke-width:0.21;stroke:none;stroke-linecap:square;stroke-linejoin:miter;fill:#142D45" clip-path="url(#cpOC4yMnw1NzAuNTJ8NTY3Ljc4fDUuNDg=)" d="M150 142h71v71h-71z"/><path style="stroke-width:0.21;stroke:none;stroke-linecap:square;stroke-linejoin:miter;fill:#1C3D5C" clip-path="url(#cpOC4yMnw1NzAuNTJ8NTY3Ljc4fDUuNDg=)" d="M221 142h71v71h-71z"/><path style="stroke-width:0.21;stroke:none;stroke-linecap:square;stroke-linejoin:miter;fill:#306490" clip-path="url(#cpOC4yMnw1NzAuNTJ8NTY3Ljc4fDUuNDg=)" d="M292 142h71v71h-71z"/><path style="stroke-width:0.21;stroke:none;stroke-linecap:square;stroke-linejoin:miter;fill:#29577E" clip-path="url(#cpOC4yMnw1NzAuNTJ8NTY3Ljc4fDUuNDg=)" d="M363 142h71v71h-71z"/><path style="stroke-width:0.21;stroke:none;stroke-linecap:square;stroke-linejoin:miter;fill:#1B3A57" clip-path="url(#cpOC4yMnw1NzAuNTJ8NTY3Ljc4fDUuNDg=)" d="M434 142h71v71h-71z"/><path style="stroke-width:0.21;stroke:none;stroke-linecap:square;stroke-linejoin:miter;fill:#142D46" clip-path="url(#cpOC4yMnw1NzAuNTJ8NTY3Ljc4fDUuNDg=)" d="M505 142h71v71h-71z"/><path style="stroke-width:0.21;stroke:none;stroke-linecap:square;stroke-linejoin:miter;fill:#132B43" clip-path="url(#cpOC4yMnw1NzAuNTJ8NTY3Ljc4fDUuNDg=)" d="M8 71h71v71H8zM79 71h71v71H79zM150 71h71v71h-71z"/><path style="stroke-width:0.21;stroke:none;stroke-linecap:square;stroke-linejoin:miter;fill:#132C44" clip-path="url(#cpOC4yMnw1NzAuNTJ8NTY3Ljc4fDUuNDg=)" d="M221 71h71v71h-71z"/><path style="stroke-width:0.21;stroke:none;stroke-linecap:square;stroke-linejoin:miter;fill:#16314C" clip-path="url(#cpOC4yMnw1NzAuNTJ8NTY3Ljc4fDUuNDg=)" d="M292 71h71v71h-71z"/><path style="stroke-width:0.21;stroke:none;stroke-linecap:square;stroke-linejoin:miter;fill:#1A3855" clip-path="url(#cpOC4yMnw1NzAuNTJ8NTY3Ljc4fDUuNDg=)" d="M363 71h71v71h-71z"/><path style="stroke-width:0.21;stroke:none;stroke-linecap:square;stroke-linejoin:miter;fill:#193652" clip-path="url(#cpOC4yMnw1NzAuNTJ8NTY3Ljc4fDUuNDg=)" d="M434 71h71v71h-71z"/><path style="stroke-width:0.21;stroke:none;stroke-linecap:square;stroke-linejoin:miter;fill:#142C45" clip-path="url(#cpOC4yMnw1NzAuNTJ8NTY3Ljc4fDUuNDg=)" d="M505 71h71v71h-71z"/><path style="stroke-width:0.21;stroke:none;stroke-linecap:square;stroke-linejoin:miter;fill:#132B43" clip-path="url(#cpOC4yMnw1NzAuNTJ8NTY3Ljc4fDUuNDg=)" d="M8 0h71v71H8zM79 0h71v71H79zM150 0h71v71h-71zM221 0h71v71h-71zM292 0h71v71h-71z"/><path style="stroke-width:0.21;stroke:none;stroke-linecap:square;stroke-linejoin:miter;fill:#142C45" clip-path="url(#cpOC4yMnw1NzAuNTJ8NTY3Ljc4fDUuNDg=)" d="M363 0h71v71h-71z"/><path style="stroke-width:0.21;stroke:none;stroke-linecap:square;stroke-linejoin:miter;fill:#132C44" clip-path="url(#cpOC4yMnw1NzAuNTJ8NTY3Ljc4fDUuNDg=)" d="M434 0h71v71h-71zM505 0h71v71h-71z"/><path style="stroke-width:12.80" clip-path="url(#cpOC4yMnw1NzAuNTJ8NTY3Ljc4fDUuNDg=)" d="M8 5h562v562H8z"/><defs><clipPath id="cpMC4wMHw1NzYuMDB8NTc2LjAwfDAuMDA="><path d="M0 0h576v576H0z"/></clipPath></defs></svg>