<svg xmlns="http://www.w3.org/2000/svg" viewBox="0 0 576 576"><defs><style><![CDATA[line,polyline,polygon,path,rect,circle{fill:none;stroke:#000000;stroke-linecap:round;stroke-linejoin:round;stroke-miterlimit:10.00}]]></style></defs><rect width="100%" height="100%" style="stroke:none;fill:#FFFFFF"/><path style="stroke-width:1.07;stroke:#FFFFFF;fill:#FFFFFF" d="M0 0h576v576H0z"/><defs><clipPath id="cpOC4yMnw1NzAuNTJ8NTY3Ljc4fDUuNDg="><path d="M8 5h562v562H8z"/></clipPath></defs><path style="stroke-width:1.07;stroke:none;fill:#FFFFFF" clip-path="url(#cpOC4yMnw1NzAuNTJ8NTY3Ljc4fDUuNDg=)" d="M8 5h562v562H8z"/><path style="stroke-width:2.13;stroke:#878787;stroke-linecap:butt" clip-path="url(#cpOC4yMnw1NzAuNTJ8NTY3Ljc4fDUuNDg=)" d="M8 526h563M8 367h563M8 207h563M8 47h563M50 568V5M210 568V5M369 568V5M529 568V5M8 446h563M8 287h563M8 127h563M130 568V5M289 568V5M449 568V5"/><path style="stroke-width:1.07;stroke:none;fill:#142D46" clip-path="url(#cpOC4yMnw1NzAuNTJ8NTY3Ljc4fDUuNDg=)" d="M50 514v46l-28 16H0v-79l10-6z"/><path style="stroke-width:1.07;stroke:none;fill:#16304A" clip-path="url(#cpOC4yMnw1NzAuNTJ8NTY3Ljc4fDUuNDg=)" d="M130 514v46l-28 16H78l-28-16v-46l40-23z"/><path style="stroke-width:1.07;stroke:none;fill:#142E46" clip-path="url(#cpOC4yMnw1NzAuNTJ8NTY3Ljc4fDUuNDg=)" d="M210 514v46l-28 16h-24l-28-16v-46l40-23z"/><path style="stroke-width:1.07;stroke:none;fill:#132B43" clip-path="url(#cpOC4yMnw1NzAuNTJ8NTY3Ljc4fDUuNDg=)" d="M289 514v46l-28 16h-24l-27-16v-46l39-23zM369 514v46l-28 16h-24l-28-16v-46l40-23zM449 514v46l-28 16h-24l-28-16v-46l40-23zM529 514v46l-28 16h-24l-28-16v-46l40-23zM557 576l-28-16v-46l40-23 7 4v81z"/><path style="stroke-width:1.07;stroke:none;fill:#16314B" clip-path="url(#cpOC4yMnw1NzAuNTJ8NTY3Ljc4fDUuNDg=)" d="M90 445v46l-40 23-40-23v-46l40-23z"/><path style="stroke-width:1.07;stroke:none;fill:#1D405F" clip-path="url(#cpOC4yMnw1NzAuNTJ8NTY3Ljc4fDUuNDg=)" d="M170 445v46l-40 23-40-23v-46l40-23z"/><path style="stroke-width:1.07;stroke:none;fill:#1C3D5C" clip-path="url(#cpOC4yMnw1NzAuNTJ8NTY3Ljc4fDUuNDg=)" d="M249 445v46l-39 23-40-23v-46l40-23z"/><path style="stroke-width:1.07;stroke:none;fill:#16324C" clip-path="url(#cpOC4yMnw1NzAuNTJ8NTY3Ljc4fDUuNDg=)" d="M329 445v46l-40 23-40-23v-46l40-23z"/><path style="stroke-width:1.07;stroke:none;fill:#142C45" clip-path="url(#cpOC4yMnw1NzAuNTJ8NTY3Ljc4fDUuNDg=)" d="M409 445v46l-40 23-40-23v-46l40-23z"/><path style="stroke-width:1.07;stroke:none;fill:#132B43" clip-path="url(#cpOC4yMnw1NzAuNTJ8NTY3Ljc4fDUuNDg=)" d="M489 445v46l-40 23-40-23v-46l40-23zM569 445v46l-40 23-40-23v-46l40-23zM576 495l-7-4v-46l7-4z"/><path style="stroke-width:1.07;stroke:none;fill:#142D46" clip-path="url(#cpOC4yMnw1NzAuNTJ8NTY3Ljc4fDUuNDg=)" d="M50 376v46l-40 23-10-6v-81l10-5z"/><path style="stroke-width:1.07;stroke:none;fill:#1B3A57" clip-path="url(#cpOC4yMnw1NzAuNTJ8NTY3Ljc4fDUuNDg=)" d="M130 376v46l-40 23-40-23v-46l40-23z"/><path style="stroke-width:1.07;stroke:none;fill:#2F638E" clip-path="url(#cpOC4yMnw1NzAuNTJ8NTY3Ljc4fDUuNDg=)" d="M210 376v46l-40 23-40-23v-46l40-23z"/><path style="stroke-width:1.07;stroke:none;fill:#346C9A" clip-path="url(#cpOC4yMnw1NzAuNTJ8NTY3Ljc4fDUuNDg=)" d="M289 376v46l-40 23-39-23v-46l39-23z"/><path style="stroke-width:1.07;stroke:none;fill:#1D3F5E" clip-path="url(#cpOC4yMnw1NzAuNTJ8NTY3Ljc4fDUuNDg=)" d="M369 376v46l-40 23-40-23v-46l40-23z"/><path style="stroke-width:1.07;stroke:none;fill:#132B43" clip-path="url(#cpOC4yMnw1NzAuNTJ8NTY3Ljc4fDUuNDg=)" d="M449 376v46l-40 23-40-23v-46l40-23zM529 376v46l-40 23-40-23v-46l40-23zM576 440l-7 5-40-23v-46l40-23 7 4z"/><path style="stroke-width:1.07;stroke:none;fill:#152E47" clip-path="url(#cpOC4yMnw1NzAuNTJ8NTY3Ljc4fDUuNDg=)" d="M90 306v46l-40 23-40-23v-46l40-22z"/><path style="stroke-width:1.07;stroke:none;fill:#1F4262" clip-path="url(#cpOC4yMnw1NzAuNTJ8NTY3Ljc4fDUuNDg=)" d="M170 306v46l-40 23-40-23v-46l40-22z"/><path style="stroke-width:1.07;stroke:none;fill:#3D7FB4" clip-path="url(#cpOC4yMnw1NzAuNTJ8NTY3Ljc4fDUuNDg=)" d="M249 306v46l-39 23-40-23v-46l40-22z"/><path style="stroke-width:1.07;stroke:none;fill:#4EA2E2" clip-path="url(#cpOC4yMnw1NzAuNTJ8NTY3Ljc4fDUuNDg=)" d="M329 306v46l-40 23-40-23v-46l40-22z"/><path style="stroke-width:1.07;stroke:none;fill:#244D71" clip-path="url(#cpOC4yMnw1NzAuNTJ8NTY3Ljc4fDUuNDg=)" d="M409 306v46l-40 23-40-23v-46l40-22z"/><path style="stroke-width:1.07;stroke:none;fill:#142E47" clip-path="url(#cpOC4yMnw1NzAuNTJ8NTY3Ljc4fDUuNDg=)" d="M489 306v46l-40 23-40-23v-46l40-22z"/><path style="stroke-width:1.07;stroke:none;fill:#132B43" clip-path="url(#cpOC4yMnw1NzAuNTJ8NTY3Ljc4fDUuNDg=)" d="M569 306v46l-40 23-40-23v-46l40-22zM576 356l-7-4v-46l7-4zM50 237v46l-40 23-10-5v-81l10-6z"/><path style="stroke-width:1.07;stroke:none;fill:#142D46" clip-path="url(#cpOC4yMnw1NzAuNTJ8NTY3Ljc4fDUuNDg=)" d="M130 237v46l-40 23-40-23v-46l40-23z"/><path style="stroke-width:1.07;stroke:none;fill:#1C3D5B" clip-path="url(#cpOC4yMnw1NzAuNTJ8NTY3Ljc4fDUuNDg=)" d="M210 237v46l-40 23-40-23v-46l40-23z"/><path style="stroke-width:1.07;stroke:none;fill:#3E81B7" clip-path="url(#cpOC4yMnw1NzAuNTJ8NTY3Ljc4fDUuNDg=)" d="M289 237v46l-40 23-39-23v-46l39-23z"/><path style="stroke-width:1.07;stroke:none;fill:#56B1F7" clip-path="url(#cpOC4yMnw1NzAuNTJ8NTY3Ljc4fDUuNDg=)" d="M369 237v46l-40 23-40-23v-46l40-23z"/><path style="stroke-width:1.07;stroke:none;fill:#2D5E88" clip-path="url(#cpOC4yMnw1NzAuNTJ8NTY3Ljc4fDUuNDg=)" d="M449 237v46l-40 23-40-23v-46l40-23z"/><path style="stroke-width:1.07;stroke:none;fill:#16324C" clip-path="url(#cpOC4yMnw1NzAuNTJ8NTY3Ljc4fDUuNDg=)" d="M529 237v46l-40 23-40-23v-46l40-23z"/><path style="stroke-width:1.07;stroke:none;fill:#132B43" clip-path="url(#cpOC4yMnw1NzAuNTJ8NTY3Ljc4fDUuNDg=)" d="M576 302l-7 4-40-23v-46l40-23 7 4zM90 168v46l-40 23-40-23v-46l40-23z"/><path style="stroke-width:1.07;stroke:none;fill:#132C44" clip-path="url(#cpOC4yMnw1NzAuNTJ8NTY3Ljc4fDUuNDg=)" d="M170 168v46l-40 23-40-23v-46l40-23z"/><path style="stroke-width:1.07;stroke:none;fill:#1A3854" clip-path="url(#cpOC4yMnw1NzAuNTJ8NTY3Ljc4fDUuNDg=)" d="M249 168v46l-39 23-40-23v-46l40-23z"/><path style="stroke-width:1.07;stroke:none;fill:#336A98" clip-path="url(#cpOC4yMnw1NzAuNTJ8NTY3Ljc4fDUuNDg=)" d="M329 168v46l-40 23-40-23v-46l40-23z"/><path style="stroke-width:1.07;stroke:none;fill:#3978AA" clip-path="url(#cpOC4yMnw1NzAuNTJ8NTY3Ljc4fDUuNDg=)" d="M409 168v46l-40 23-40-23v-46l40-23z"/><path style="stroke-width:1.07;stroke:none;fill:#22496C" clip-path="url(#cpOC4yMnw1NzAuNTJ8NTY3Ljc4fDUuNDg=)" d="M489 168v46l-40 23-40-23v-46l40-23z"/><path style="stroke-width:1.07;stroke:none;fill:#16314B" clip-path="url(#cpOC4yMnw1NzAuNTJ8NTY3Ljc4fDUuNDg=)" d="M569 168v46l-40 23-40-23v-46l40-23z"/><path style="stroke-width:1.07;stroke:none;fill:#132C44" clip-path="url(#cpOC4yMnw1NzAuNTJ8NTY3Ljc4fDUuNDg=)" d="M576 218l-7-4v-46l7-4z"/><path style="stroke-width:1.07;stroke:none;fill:#132B43" clip-path="url(#cpOC4yMnw1NzAuNTJ8NTY3Ljc4fDUuNDg=)" d="M50 99v46l-40 23-10-6V82l10-6zM130 99v46l-40 23-40-23V99l40-23zM210 99v46l-40 23-40-23V99l40-23z"/><path style="stroke-width:1.07;stroke:none;fill:#152F48" clip-path="url(#cpOC4yMnw1NzAuNTJ8NTY3Ljc4fDUuNDg=)" d="M289 99v46l-40 23-39-23V99l39-23z"/><path style="stroke-width:1.07;stroke:none;fill:#1C3C5A" clip-path="url(#cpOC4yMnw1NzAuNTJ8NTY3Ljc4fDUuNDg=)" d="M369 99v46l-40 23-40-23V99l40-23z"/><path style="stroke-width:1.07;stroke:none;fill:#204566" clip-path="url(#cpOC4yMnw1NzAuNTJ8NTY3Ljc4fDUuNDg=)" d="M449 99v46l-40 23-40-23V99l40-23z"/><path style="stroke-width:1.07;stroke:none;fill:#1B3A57" clip-path="url(#cpOC4yMnw1NzAuNTJ8NTY3Ljc4fDUuNDg=)" d="M529 99v46l-40 23-40-23V99l40-23z"/><path style="stroke-width:1.07;stroke:none;fill:#142C45" clip-path="url(#cpOC4yMnw1NzAuNTJ8NTY3Ljc4fDUuNDg=)" d="M576 164l-7 4-40-23V99l40-23 7 4z"/><path style="stroke-width:1.07;stroke:none;fill:#132B43" clip-path="url(#cpOC4yMnw1NzAuNTJ8NTY3Ljc4fDUuNDg=)" d="M90 30v46L50 99 10 76V30L50 7zM170 30v46l-40 23-40-23V30l40-23zM249 30v46l-39 23-40-23V30l40-23z"/><path style="stroke-width:1.07;stroke:none;fill:#132C44" clip-path="url(#cpOC4yMnw1NzAuNTJ8NTY3Ljc4fDUuNDg=)" d="M329 30v46l-40 23-40-23V30l40-23z"/><path style="stroke-width:1.07;stroke:none;fill:#152F48" clip-path="url(#cpOC4yMnw1NzAuNTJ8NTY3Ljc4fDUuNDg=)" d="M409 30v46l-40 23-40-23V30l40-23z"/><path style="stroke-width:1.07;stroke:none;fill:#16304A" clip-path="url(#cpOC4yMnw1NzAuNTJ8NTY3Ljc4fDUuNDg=)" d="M489 30v46l-40 23-40-23V30l40-23z"/><path style="stroke-width:1.07;stroke:none;fill:#152E47" clip-path="url(#cpOC4yMnw1NzAuNTJ8NTY3Ljc4fDUuNDg=)" d="M569 30v46l-40 23-40-23V30l40-23z"/><path style="stroke-width:1.07;stroke:none;fill:#132C44" clip-path="url(#cpOC4yMnw1NzAuNTJ8NTY3Ljc4fDUuNDg=)" d="M576 80l-7-4V30l7-4z"/><path style="stroke-width:1.07;stroke:none;fill:#132B43" clip-path="url(#cpOC4yMnw1NzAuNTJ8NTY3Ljc4fDUuNDg=)" d="M50 0v7L10 30 0 24V0zM130 0v7L90 30 50 7V0zM210 0v7l-40 23-40-23V0zM289 0v7l-40 23-39-23V0z"/><path style="stroke-width:1.07;stroke:none;fill:#132C44" clip-path="url(#cpOC4yMnw1NzAuNTJ8NTY3Ljc4fDUuNDg=)" d="M369 0v7l-40 23-40-23V0zM449 0v7l-40 23-40-23V0z"/><path style="stroke-width:1.07;stroke:none;fill:#132B43" clip-path="url(#cpOC4yMnw1NzAuNTJ8NTY3Ljc4fDUuNDg=)" d="M529 0v7l-40 23-40-23V0z"/><path style="stroke-width:1.07;stroke:none;fill:#132C44" clip-path="url(#cpOC4yMnw1NzAuNTJ8NTY3Ljc4fDUuNDg=)" d="M576 25l-7 5-40-23V0h47z"/><path style="stroke-width:12.80" clip-path="url(#cpOC4yMnw1NzAuNTJ8NTY3Ljc4fDUuNDg=)" d="M8 5h562v562H8z"/><defs><clipPath id="cpMC4wMHw1NzYuMDB8NTc2LjAwfDAuMDA="><path d="M0 0h576v576H0z"/></clipPath></defs></svg>