<svg xmlns="http://www.w3.org/2000/svg" viewBox="0 0 576 576"><defs><style><![CDATA[line,polyline,polygon,path,rect,circle{fill:none;stroke:#000000;stroke-linecap:round;stroke-linejoin:round;stroke-miterlimit:10.00}]]></style></defs><rect width="100%" height="100%" style="stroke:none;fill:#FFFFFF"/><path style="stroke-width:1.07;stroke:#FFFFFF;fill:#FFFFFF" d="M0 0h576v576H0z"/><defs><clipPath id="cpOC4yMnw1NzAuNTJ8NTY3Ljc4fDUuNDg="><path d="M8 5h562v562H8z"/></clipPath></defs><path style="stroke-width:1.07;stroke:none;fill:#FFFFFF" clip-path="url(#cpOC4yMnw1NzAuNTJ8NTY3Ljc4fDUuNDg=)" d="M8 5h562v562H8z"/><path style="stroke-width:2.13;stroke:#878787;stroke-linecap:butt" clip-path="url(#cpOC4yMnw1NzAuNTJ8NTY3Ljc4fDUuNDg=)" d="M8 478h563M8 351h563M8 223h563M8 95h563M98 568V5M225 568V5M353 568V5M481 568V5M8 542h563M8 414h563M8 287h563M8 159h563M8 31h563M34 568V5M162 568V5M289 568V5M417 568V5M545 568V5"/><circle cx="261" cy="431" r="7" style="stroke-width:0.71;fill:#000000" clip-path="url(#cpOC4yMnw1NzAuNTJ8NTY3Ljc4fDUuNDg=)"/><circle cx="312" cy="346" r="7" style="stroke-width:0.71;fill:#000000" clip-path="url(#cpOC4yMnw1NzAuNTJ8NTY3Ljc4fDUuNDg=)"/><circle cx="370" cy="222" r="7" style="stroke-width:0.71;fill:#000000" clip-path="url(#cpOC4yMnw1NzAuNTJ8NTY3Ljc4fDUuNDg=)"/><circle cx="324" cy="315" r="7" style="stroke-width:0.71;fill:#000000" clip-path="url(#cpOC4yMnw1NzAuNTJ8NTY3Ljc4fDUuNDg=)"/><circle cx="341" cy="241" r="7" style="stroke-width:0.71;fill:#000000" clip-path="url(#cpOC4yMnw1NzAuNTJ8NTY3Ljc4fDUuNDg=)"/><circle cx="421" cy="295" r="7" style="stroke-width:0.71;fill:#000000" clip-path="url(#cpOC4yMnw1NzAuNTJ8NTY3Ljc4fDUuNDg=)"/><circle cx="369" cy="220" r="7" style="stroke-width:0.71;fill:#000000" clip-path="url(#cpOC4yMnw1NzAuNTJ8NTY3Ljc4fDUuNDg=)"/><circle cx="303" cy="218" r="7" style="stroke-width:0.71;fill:#000000" clip-path="url(#cpOC4yMnw1NzAuNTJ8NTY3Ljc4fDUuNDg=)"/><circle cx="347" cy="296" r="7" style="stroke-width:0.71;fill:#000000" clip-path="url(#cpOC4yMnw1NzAuNTJ8NTY3Ljc4fDUuNDg=)"/><circle cx="338" cy="188" r="7" style="stroke-width:0.71;fill:#000000" clip-path="url(#cpOC4yMnw1NzAuNTJ8NTY3Ljc4fDUuNDg=)"/><circle cx="188" cy="397" r="7" style="stroke-width:0.71;fill:#000000" clip-path="url(#cpOC4yMnw1NzAuNTJ8NTY3Ljc4fDUuNDg=)"/><circle cx="330" cy="170" r="7" style="stroke-width:0.71;fill:#000000" clip-path="url(#cpOC4yMnw1NzAuNTJ8NTY3Ljc4fDUuNDg=)"/><circle cx="149" cy="397" r="7" style="stroke-width:0.71;fill:#000000" clip-path="url(#cpOC4yMnw1NzAuNTJ8NTY3Ljc4fDUuNDg=)"/><circle cx="325" cy="297" r="7" style="stroke-width:0.71;fill:#000000" clip-path="url(#cpOC4yMnw1NzAuNTJ8NTY3Ljc4fDUuNDg=)"/><circle cx="326" cy="238" r="7" style="stroke-width:0.71;fill:#000000" clip-path="url(#cpOC4yMnw1NzAuNTJ8NTY3Ljc4fDUuNDg=)"/><circle cx="300" cy="306" r="7" style="stroke-width:0.71;fill:#000000" clip-path="url(#cpOC4yMnw1NzAuNTJ8NTY3Ljc4fDUuNDg=)"/><circle cx="339" cy="217" r="7" style="stroke-width:0.71;fill:#000000" clip-path="url(#cpOC4yMnw1NzAuNTJ8NTY3Ljc4fDUuNDg=)"/><circle cx="301" cy="264" r="7" style="stroke-width:0.71;fill:#000000" clip-path="url(#cpOC4yMnw1NzAuNTJ8NTY3Ljc4fDUuNDg=)"/><circle cx="318" cy="196" r="7" style="stroke-width:0.71;fill:#000000" clip-path="url(#cpOC4yMnw1NzAuNTJ8NTY3Ljc4fDUuNDg=)"/><circle cx="407" cy="163" r="7" style="stroke-width:0.71;fill:#000000" clip-path="url(#cpOC4yMnw1NzAuNTJ8NTY3Ljc4fDUuNDg=)"/><circle cx="342" cy="132" r="7" style="stroke-width:0.71;fill:#000000" clip-path="url(#cpOC4yMnw1NzAuNTJ8NTY3Ljc4fDUuNDg=)"/><circle cx="170" cy="523" r="7" style="stroke-width:0.71;fill:#000000" clip-path="url(#cpOC4yMnw1NzAuNTJ8NTY3Ljc4fDUuNDg=)"/><circle cx="232" cy="259" r="7" style="stroke-width:0.71;fill:#000000" clip-path="url(#cpOC4yMnw1NzAuNTJ8NTY3Ljc4fDUuNDg=)"/><circle cx="376" cy="77" r="7" style="stroke-width:0.71;fill:#000000" clip-path="url(#cpOC4yMnw1NzAuNTJ8NTY3Ljc4fDUuNDg=)"/><circle cx="226" cy="384" r="7" style="stroke-width:0.71;fill:#000000" clip-path="url(#cpOC4yMnw1NzAuNTJ8NTY3Ljc4fDUuNDg=)"/><circle cx="238" cy="318" r="7" style="stroke-width:0.71;fill:#000000" clip-path="url(#cpOC4yMnw1NzAuNTJ8NTY3Ljc4fDUuNDg=)"/><circle cx="165" cy="316" r="7" style="stroke-width:0.71;fill:#000000" clip-path="url(#cpOC4yMnw1NzAuNTJ8NTY3Ljc4fDUuNDg=)"/><circle cx="252" cy="296" r="7" style="stroke-width:0.71;fill:#000000" clip-path="url(#cpOC4yMnw1NzAuNTJ8NTY3Ljc4fDUuNDg=)"/><circle cx="323" cy="256" r="7" style="stroke-width:0.71;fill:#000000" clip-path="url(#cpOC4yMnw1NzAuNTJ8NTY3Ljc4fDUuNDg=)"/><path style="stroke-width:12.80" clip-path="url(#cpOC4yMnw1NzAuNTJ8NTY3Ljc4fDUuNDg=)" d="M8 5h562v562H8z"/><defs><clipPath id="cpMC4wMHw1NzYuMDB8NTc2LjAwfDAuMDA="><path d="M0 0h576v576H0z"/></clipPath></defs></svg>