<svg xmlns="http://www.w3.org/2000/svg" viewBox="0 0 576 576"><defs><style><![CDATA[line,polyline,polygon,path,rect,circle{fill:none;stroke:#000000;stroke-linecap:round;stroke-linejoin:round;stroke-miterlimit:10.00}]]></style></defs><rect width="100%" height="100%" style="stroke:none;fill:#FFFFFF"/><path style="stroke-width:1.07;stroke:#FFFFFF;fill:#FFFFFF" d="M0 0h576v576H0z"/><defs><clipPath id="cpOC4yMnw1NzAuNTJ8NTY3Ljc4fDUuNDg="><path d="M8 5h562v562H8z"/></clipPath></defs><path style="stroke-width:1.07;stroke:none;fill:#FFFFFF" clip-path="url(#cpOC4yMnw1NzAuNTJ8NTY3Ljc4fDUuNDg=)" d="M8 5h562v562H8z"/><path style="stroke-width:2.13;stroke:#878787;stroke-linecap:butt" clip-path="url(#cpOC4yMnw1NzAuNTJ8NTY3Ljc4fDUuNDg=)" d="M8 478h563M8 351h563M8 223h563M8 95h563M98 568V5M225 568V5M353 568V5M481 568V5M8 542h563M8 414h563M8 287h563M8 159h563M8 31h563M34 568V5M162 568V5M289 568V5M417 568V5M545 568V5"/><circle cx="93" cy="508" r="8" style="stroke-width:0.71;fill:#000000" clip-path="url(#cpOC4yMnw1NzAuNTJ8NTY3Ljc4fDUuNDg=)"/><circle cx="116" cy="442" r="8" style="stroke-width:0.71;fill:#000000" clip-path="url(#cpOC4yMnw1NzAuNTJ8NTY3Ljc4fDUuNDg=)"/><circle cx="134" cy="430" r="8" style="stroke-width:0.71;fill:#000000" clip-path="url(#cpOC4yMnw1NzAuNTJ8NTY3Ljc4fDUuNDg=)"/><circle cx="150" cy="416" r="8" style="stroke-width:0.71;fill:#000000" clip-path="url(#cpOC4yMnw1NzAuNTJ8NTY3Ljc4fDUuNDg=)"/><circle cx="164" cy="393" r="8" style="stroke-width:0.71;fill:#000000" clip-path="url(#cpOC4yMnw1NzAuNTJ8NTY3Ljc4fDUuNDg=)"/><circle cx="176" cy="391" r="8" style="stroke-width:0.71;fill:#000000" clip-path="url(#cpOC4yMnw1NzAuNTJ8NTY3Ljc4fDUuNDg=)"/><circle cx="187" cy="378" r="8" style="stroke-width:0.71;fill:#000000" clip-path="url(#cpOC4yMnw1NzAuNTJ8NTY3Ljc4fDUuNDg=)"/><circle cx="198" cy="369" r="8" style="stroke-width:0.71;fill:#000000" clip-path="url(#cpOC4yMnw1NzAuNTJ8NTY3Ljc4fDUuNDg=)"/><circle cx="208" cy="361" r="8" style="stroke-width:0.71;fill:#000000" clip-path="url(#cpOC4yMnw1NzAuNTJ8NTY3Ljc4fDUuNDg=)"/><circle cx="218" cy="361" r="8" style="stroke-width:0.71;fill:#000000" clip-path="url(#cpOC4yMnw1NzAuNTJ8NTY3Ljc4fDUuNDg=)"/><circle cx="227" cy="357" r="8" style="stroke-width:0.71;fill:#000000" clip-path="url(#cpOC4yMnw1NzAuNTJ8NTY3Ljc4fDUuNDg=)"/><circle cx="236" cy="356" r="8" style="stroke-width:0.71;fill:#000000" clip-path="url(#cpOC4yMnw1NzAuNTJ8NTY3Ljc4fDUuNDg=)"/><circle cx="244" cy="346" r="8" style="stroke-width:0.71;fill:#000000" clip-path="url(#cpOC4yMnw1NzAuNTJ8NTY3Ljc4fDUuNDg=)"/><circle cx="253" cy="324" r="8" style="stroke-width:0.71;fill:#000000" clip-path="url(#cpOC4yMnw1NzAuNTJ8NTY3Ljc4fDUuNDg=)"/><circle cx="261" cy="317" r="8" style="stroke-width:0.71;fill:#000000" clip-path="url(#cpOC4yMnw1NzAuNTJ8NTY3Ljc4fDUuNDg=)"/><circle cx="269" cy="306" r="8" style="stroke-width:0.71;fill:#000000" clip-path="url(#cpOC4yMnw1NzAuNTJ8NTY3Ljc4fDUuNDg=)"/><circle cx="277" cy="290" r="8" style="stroke-width:0.71;fill:#000000" clip-path="url(#cpOC4yMnw1NzAuNTJ8NTY3Ljc4fDUuNDg=)"/><circle cx="285" cy="289" r="8" style="stroke-width:0.71;fill:#000000" clip-path="url(#cpOC4yMnw1NzAuNTJ8NTY3Ljc4fDUuNDg=)"/><circle cx="293" cy="285" r="8" style="stroke-width:0.71;fill:#000000" clip-path="url(#cpOC4yMnw1NzAuNTJ8NTY3Ljc4fDUuNDg=)"/><circle cx="301" cy="276" r="8" style="stroke-width:0.71;fill:#000000" clip-path="url(#cpOC4yMnw1NzAuNTJ8NTY3Ljc4fDUuNDg=)"/><circle cx="309" cy="273" r="8" style="stroke-width:0.71;fill:#000000" clip-path="url(#cpOC4yMnw1NzAuNTJ8NTY3Ljc4fDUuNDg=)"/><circle cx="318" cy="263" r="8" style="stroke-width:0.71;fill:#000000" clip-path="url(#cpOC4yMnw1NzAuNTJ8NTY3Ljc4fDUuNDg=)"/><circle cx="326" cy="243" r="8" style="stroke-width:0.71;fill:#000000" clip-path="url(#cpOC4yMnw1NzAuNTJ8NTY3Ljc4fDUuNDg=)"/><circle cx="334" cy="238" r="8" style="stroke-width:0.71;fill:#000000" clip-path="url(#cpOC4yMnw1NzAuNTJ8NTY3Ljc4fDUuNDg=)"/><circle cx="343" cy="237" r="8" style="stroke-width:0.71;fill:#000000" clip-path="url(#cpOC4yMnw1NzAuNTJ8NTY3Ljc4fDUuNDg=)"/><circle cx="352" cy="227" r="8" style="stroke-width:0.71;fill:#000000" clip-path="url(#cpOC4yMnw1NzAuNTJ8NTY3Ljc4fDUuNDg=)"/><circle cx="361" cy="225" r="8" style="stroke-width:0.71;fill:#000000" clip-path="url(#cpOC4yMnw1NzAuNTJ8NTY3Ljc4fDUuNDg=)"/><circle cx="371" cy="225" r="8" style="stroke-width:0.71;fill:#000000" clip-path="url(#cpOC4yMnw1NzAuNTJ8NTY3Ljc4fDUuNDg=)"/><circle cx="381" cy="183" r="8" style="stroke-width:0.71;fill:#000000" clip-path="url(#cpOC4yMnw1NzAuNTJ8NTY3Ljc4fDUuNDg=)"/><circle cx="391" cy="177" r="8" style="stroke-width:0.71;fill:#000000" clip-path="url(#cpOC4yMnw1NzAuNTJ8NTY3Ljc4fDUuNDg=)"/><circle cx="403" cy="169" r="8" style="stroke-width:0.71;fill:#000000" clip-path="url(#cpOC4yMnw1NzAuNTJ8NTY3Ljc4fDUuNDg=)"/><circle cx="415" cy="159" r="8" style="stroke-width:0.71;fill:#000000" clip-path="url(#cpOC4yMnw1NzAuNTJ8NTY3Ljc4fDUuNDg=)"/><circle cx="429" cy="154" r="8" style="stroke-width:0.71;fill:#000000" clip-path="url(#cpOC4yMnw1NzAuNTJ8NTY3Ljc4fDUuNDg=)"/><circle cx="444" cy="139" r="8" style="stroke-width:0.71;fill:#000000" clip-path="url(#cpOC4yMnw1NzAuNTJ8NTY3Ljc4fDUuNDg=)"/><circle cx="463" cy="122" r="8" style="stroke-width:0.71;fill:#000000" clip-path="url(#cpOC4yMnw1NzAuNTJ8NTY3Ljc4fDUuNDg=)"/><circle cx="485" cy="100" r="8" style="stroke-width:0.71;fill:#000000" clip-path="url(#cpOC4yMnw1NzAuNTJ8NTY3Ljc4fDUuNDg=)"/><circle cx="517" cy="87" r="8" style="stroke-width:0.71;fill:#000000" clip-path="url(#cpOC4yMnw1NzAuNTJ8NTY3Ljc4fDUuNDg=)"/><path style="stroke-width:12.80" clip-path="url(#cpOC4yMnw1NzAuNTJ8NTY3Ljc4fDUuNDg=)" d="M8 5h562v562H8z"/><defs><clipPath id="cpMC4wMHw1NzYuMDB8NTc2LjAwfDAuMDA="><path d="M0 0h576v576H0z"/></clipPath></defs></svg>