<svg xmlns="http://www.w3.org/2000/svg" viewBox="0 0 576 576"><defs><style><![CDATA[line,polyline,path,rect,circle{fill:none;stroke:#000000;stroke-linecap:round;stroke-linejoin:round;stroke-miterlimit:10.00}]]></style></defs><rect width="100%" height="100%" style="stroke:none;fill:#FFFFFF"/><path style="stroke-width:1.07;stroke:#FFFFFF;fill:#FFFFFF" d="M0 0h576v576H0z"/><defs><clipPath id="cpOC4yMnw1NzAuNTJ8NTY3Ljc4fDUuNDg="><path d="M8 5h562v562H8z"/></clipPath></defs><path style="stroke-width:1.07;stroke:none;fill:#FFFFFF" clip-path="url(#cpOC4yMnw1NzAuNTJ8NTY3Ljc4fDUuNDg=)" d="M8 5h562v562H8z"/><path style="stroke-width:2.13;stroke:#878787;stroke-linecap:butt" clip-path="url(#cpOC4yMnw1NzAuNTJ8NTY3Ljc4fDUuNDg=)" d="M8 478h563M8 351h563M8 223h563M8 95h563M119 568V5M289 568V5M460 568V5M8 542h563M8 414h563M8 287h563M8 159h563M8 31h563M34 568V5M204 568V5M375 568V5M545 568V5"/><path style="stroke-width:10.67;stroke:none;fill:#54585E;fill-opacity:0.50;stroke-linecap:round;stroke-linejoin:round;stroke-miterlimit:10.00" clip-path="url(#cpOC4yMnw1NzAuNTJ8NTY3Ljc4fDUuNDg=)" d="M36 148l6 11 7 11 6 10 6 9 6 8 6 8 6 8 6 6 6 6 7 5 6 5 6 4 6 4 6 3 6 2 6 2 6 2 7 2 6 2 6 1 6 2 6 2 6 2 6 2 6 1 7 1 6 1 6 1h12l6-1h6l6-2 6-1 7 1h6l6-1 6-1 6-3 6-2 6-3 6-3 7-4 6-5 6-5 6-4 6-3 6-3 6-3 6-3 7-5 6-4 6-4 6-3 6-1 6-2 6-1 6-2 7-1 6-2 6-1 6-2 6-2 6-3 6-3 6-4 7-4 6-5 6-6 6-6 6-8 6-8 6-9 6-10 7-11 6-12 6-12 6-13 6-13v253l-6-7-6-7-6-7-6-6-7-5-6-5-6-4-6-3-6-3-6-2-6-1h-13l-6 1-6 1-6 1-6 2-6 1-6 2-6 1-7 2-6 1-6 2-6 1-6 2-6 2-6 3-6 3-7 3-6 5-6 4-6 5-6 3-6 4-6 3-6 3-7 4-6 4-6 4-6 2h-6l-6-1-6-1h-6l-7 1-6 2-6 1-6 2-6 1h-24l-7-1-6-1-6-1h-6l-6-1-6-1-6-1h-6l-7-1-6-1h-6l-6-1-6 1h-6l-6 1-6 2-7 2-6 3-6 3-6 4-6 4-6 5-6 5-6 6-7 7-6 7z"/><path style="stroke-width:10.67;stroke:#3366FF;stroke-linecap:butt" clip-path="url(#cpOC4yMnw1NzAuNTJ8NTY3Ljc4fDUuNDg=)" d="M36 266l6 2 7 2 6 2 6 2 6 2 6 2 6 1 6 2 6 2 7 1 6 2 6 1 6 2 6 1 6 1 6 2 6 1 7 1 6 2 6 1 6 1 6 1 6 2 6 1 6 1 7 1 6 1h18l6-1 6-1 6-2 6-1h25l6-2 6-2 6-3 6-4 7-4 6-4 6-4 6-3 6-3 6-4 6-4 6-4 7-4 6-4 6-3 6-2 6-2 6-2 6-1 6-2 7-1 6-1 6-2 6-2 6-2 6-2 6-2 6-2 7-2 6-2 6-3 6-2 6-2 6-3 6-3 6-2 7-3 6-3 6-3 6-3 6-3"/><path style="stroke-width:12.80" clip-path="url(#cpOC4yMnw1NzAuNTJ8NTY3Ljc4fDUuNDg=)" d="M8 5h562v562H8z"/><defs><clipPath id="cpMC4wMHw1NzYuMDB8NTc2LjAwfDAuMDA="><path d="M0 0h576v576H0z"/></clipPath></defs></svg>