<svg xmlns="http://www.w3.org/2000/svg" viewBox="0 0 576 576"><defs><style><![CDATA[line,polyline,polygon,path,rect,circle{fill:none;stroke:#000000;stroke-linecap:round;stroke-linejoin:round;stroke-miterlimit:10.00}]]></style></defs><rect width="100%" height="100%" style="stroke:none;fill:#FFFFFF"/><path style="stroke-width:1.07;stroke:#FFFFFF;fill:#FFFFFF" d="M0 0h576v576H0z"/><defs><clipPath id="cpOC4yMnw1NzAuNTJ8NTY3Ljc4fDUuNDg="><path d="M8 5h562v562H8z"/></clipPath></defs><path style="stroke-width:1.07;stroke:none;fill:#FFFFFF" clip-path="url(#cpOC4yMnw1NzAuNTJ8NTY3Ljc4fDUuNDg=)" d="M8 5h562v562H8z"/><path style="stroke-width:2.13;stroke:#878787;stroke-linecap:butt" clip-path="url(#cpOC4yMnw1NzAuNTJ8NTY3Ljc4fDUuNDg=)" d="M8 478h563M8 351h563M8 223h563M8 95h563M98 568V5M225 568V5M353 568V5M481 568V5M8 542h563M8 414h563M8 287h563M8 159h563M8 31h563M34 568V5M162 568V5M289 568V5M417 568V5M545 568V5"/><path style="stroke-width:2.56" clip-path="url(#cpOC4yMnw1NzAuNTJ8NTY3Ljc4fDUuNDg=)" d="M433 568v-56M310 568v-56M293 568v-56M415 568v-56M385 568v-56M206 568v-56M369 568v-56M368 568v-56M332 568v-56M392 568v-56M313 568v-56M376 568v-56M408 568v-56M262 568v-56M398 568v-56M306 568v-56M336 568v-56M271 568v-56M336 568v-56M163 568v-56M264 568v-56M300 568v-56M229 568v-56M278 568v-56M191 568v-56M349 568v-56M297 568v-56M276 568v-56M169 568v-56M185 568v-56M426 568v-56M501 568v-56M343 568v-56M412 568v-56M442 568v-56M198 568v-56M320 568v-56M328 568v-56M225 568v-56M307 568v-56M339 568v-56M153 568v-56M244 568v-56M308 568v-56M431 568v-56M115 568v-56M165 568v-56M293 568v-56M247 568v-56M217 568v-56M186 568v-56M268 568v-56M232 568v-56M261 568v-56M354 568v-56M149 568v-56M457 568v-56M323 568v-56M372 568v-56M155 568v-56M334 568v-56M348 568v-56M370 568v-56M247 568v-56M294 568v-56M293 568v-56M305 568v-56M317 568v-56M338 568v-56M376 568v-56M255 568v-56M210 568v-56M179 568v-56M280 568v-56M317 568v-56M306 568v-56M261 568v-56M213 568v-56M289 568v-56M208 568v-56M217 568v-56M456 568v-56M355 568v-56M304 568v-56M217 568v-56M270 568v-56M302 568v-56M280 568v-56M339 568v-56M227 568v-56M205 568v-56M411 568v-56M267 568v-56M155 568v-56M247 568v-56M305 568v-56M160 568v-56M200 568v-56M320 568v-56M389 568v-56M8 283h56M8 233h56M8 367h56M8 346h56M8 155h56M8 423h56M8 355h56M8 332h56M8 190h56M8 228h56M8 362h56M8 280h56M8 320h56M8 308h56M8 335h56M8 283h56M8 232h56M8 235h56M8 424h56M8 209h56M8 298h56M8 447h56M8 244h56M8 190h56M8 288h56M8 293h56M8 253h56M8 397h56M8 440h56M8 285h56M8 314h56M8 296h56M8 233h56M8 328h56M8 318h56M8 334h56M8 274h56M8 350h56M8 267h56M8 438h56M8 328h56M8 324h56M8 324h56M8 399h56M8 418h56M8 140h56M8 316h56M8 326h56M8 198h56M8 408h56M8 288h56M8 259h56M8 302h56M8 386h56M8 463h56M8 309h56M8 111h56M8 253h56M8 413h56M8 251h56M8 367h56M8 450h56M8 452h56M8 336h56M8 219h56M8 394h56M8 201h56M8 212h56M8 294h56M8 252h56M8 168h56M8 293h56M8 422h56M8 167h56M8 281h56M8 242h56M8 330h56M8 220h56M8 233h56M8 330h56M8 280h56M8 215h56M8 198h56M8 102h56M8 313h56M8 190h56M8 328h56M8 201h56M8 392h56M8 334h56M8 157h56M8 444h56M8 474h56M8 224h56M8 311h56M8 456h56M8 334h56M8 229h56M8 260h56"/><path style="stroke-width:12.80" clip-path="url(#cpOC4yMnw1NzAuNTJ8NTY3Ljc4fDUuNDg=)" d="M8 5h562v562H8z"/><defs><clipPath id="cpMC4wMHw1NzYuMDB8NTc2LjAwfDAuMDA="><path d="M0 0h576v576H0z"/></clipPath></defs></svg>