<svg xmlns="http://www.w3.org/2000/svg" viewBox="0 0 576 576"><defs><style><![CDATA[line,polyline,polygon,path,rect,circle{fill:none;stroke:#000000;stroke-linecap:round;stroke-linejoin:round;stroke-miterlimit:10.00}]]></style></defs><rect width="100%" height="100%" style="stroke:none;fill:#FFFFFF"/><path style="stroke-width:1.07;stroke:#FFFFFF;fill:#FFFFFF" d="M0 0h576v576H0z"/><defs><clipPath id="cpOC4yMnw1NzAuNTJ8NTY3Ljc4fDUuNDg="><path d="M8 5h562v562H8z"/></clipPath></defs><path style="stroke-width:1.07;stroke:none;fill:#FFFFFF" clip-path="url(#cpOC4yMnw1NzAuNTJ8NTY3Ljc4fDUuNDg=)" d="M8 5h562v562H8z"/><path style="stroke-width:2.13;stroke:#878787;stroke-linecap:butt" clip-path="url(#cpOC4yMnw1NzAuNTJ8NTY3Ljc4fDUuNDg=)" d="M8 478h563M8 351h563M8 223h563M8 95h563M98 568V5M225 568V5M353 568V5M481 568V5M8 542h563M8 414h563M8 287h563M8 159h563M8 31h563M34 568V5M162 568V5M289 568V5M417 568V5M545 568V5"/><path style="stroke-width:8.54;stroke:#333333;stroke-linecap:butt" clip-path="url(#cpOC4yMnw1NzAuNTJ8NTY3Ljc4fDUuNDg=)" d="M187 184V82M187 440v51"/><path style="stroke-width:8.54;stroke:#333333;fill:#FFFFFF" clip-path="url(#cpOC4yMnw1NzAuNTJ8NTY3Ljc4fDUuNDg=)" d="M136 184v256h102V184H136z"/><path style="stroke-width:17.07;stroke:#333333;stroke-linecap:butt" clip-path="url(#cpOC4yMnw1NzAuNTJ8NTY3Ljc4fDUuNDg=)" d="M136 389h102"/><path style="stroke-width:8.54;stroke:#333333;stroke-linecap:butt" clip-path="url(#cpOC4yMnw1NzAuNTJ8NTY3Ljc4fDUuNDg=)" d="M392 236v-52M392 389v77"/><path style="stroke-width:8.54;stroke:#333333;fill:#FFFFFF" clip-path="url(#cpOC4yMnw1NzAuNTJ8NTY3Ljc4fDUuNDg=)" d="M340 236v153h103V236H340z"/><path style="stroke-width:17.07;stroke:#333333;stroke-linecap:butt" clip-path="url(#cpOC4yMnw1NzAuNTJ8NTY3Ljc4fDUuNDg=)" d="M340 287h103"/><circle cx="392" cy="133" r="9" style="stroke-width:0.71;fill:#000000" clip-path="url(#cpOC4yMnw1NzAuNTJ8NTY3Ljc4fDUuNDg=)"/><circle cx="392" cy="82" r="9" style="stroke-width:0.71;fill:#000000" clip-path="url(#cpOC4yMnw1NzAuNTJ8NTY3Ljc4fDUuNDg=)"/><path style="stroke-width:12.80" clip-path="url(#cpOC4yMnw1NzAuNTJ8NTY3Ljc4fDUuNDg=)" d="M8 5h562v562H8z"/><defs><clipPath id="cpMC4wMHw1NzYuMDB8NTc2LjAwfDAuMDA="><path d="M0 0h576v576H0z"/></clipPath></defs></svg>